<?xml version="1.0" encoding="UTF-8"?>
<!DOCTYPE svg PUBLIC "-//W3C//DTD SVG 1.1//EN" "http://www.w3.org/Graphics/SVG/1.1/DTD/svg11.dtd">
<svg version="1.2" width="25.33mm" height="22.18mm" viewBox="4035 3424 2533 2218" preserveAspectRatio="xMidYMid" fill-rule="evenodd" stroke-width="28.222" stroke-linejoin="round" xmlns="http://www.w3.org/2000/svg" xmlns:ooo="http://xml.openoffice.org/svg/export" xmlns:xlink="http://www.w3.org/1999/xlink" xmlns:presentation="http://sun.com/xmlns/staroffice/presentation" xmlns:smil="http://www.w3.org/2001/SMIL20/" xmlns:anim="urn:oasis:names:tc:opendocument:xmlns:animation:1.0" xmlns:svg="urn:oasis:names:tc:opendocument:xmlns:svg-compatible:1.0" xml:space="preserve">
 <defs class="EmbeddedBulletChars">
  <g id="bullet-char-template-57356" transform="scale(0.00048828125,-0.00048828125)">
   <path d="M 580,1141 L 1163,571 580,0 -4,571 580,1141 Z"/>
  </g>
  <g id="bullet-char-template-57354" transform="scale(0.00048828125,-0.00048828125)">
   <path d="M 8,1128 L 1137,1128 1137,0 8,0 8,1128 Z"/>
  </g>
  <g id="bullet-char-template-10146" transform="scale(0.00048828125,-0.00048828125)">
   <path d="M 174,0 L 602,739 174,1481 1456,739 174,0 Z M 1358,739 L 309,1346 659,739 1358,739 Z"/>
  </g>
  <g id="bullet-char-template-10132" transform="scale(0.00048828125,-0.00048828125)">
   <path d="M 2015,739 L 1276,0 717,0 1260,543 174,543 174,936 1260,936 717,1481 1274,1481 2015,739 Z"/>
  </g>
  <g id="bullet-char-template-10007" transform="scale(0.00048828125,-0.00048828125)">
   <path d="M 0,-2 C -7,14 -16,27 -25,37 L 356,567 C 262,823 215,952 215,954 215,979 228,992 255,992 264,992 276,990 289,987 310,991 331,999 354,1012 L 381,999 492,748 772,1049 836,1024 860,1049 C 881,1039 901,1025 922,1006 886,937 835,863 770,784 769,783 710,716 594,584 L 774,223 C 774,196 753,168 711,139 L 727,119 C 717,90 699,76 672,76 641,76 570,178 457,381 L 164,-76 C 142,-110 111,-127 72,-127 30,-127 9,-110 8,-76 1,-67 -2,-52 -2,-32 -2,-23 -1,-13 0,-2 Z"/>
  </g>
  <g id="bullet-char-template-10004" transform="scale(0.00048828125,-0.00048828125)">
   <path d="M 285,-33 C 182,-33 111,30 74,156 52,228 41,333 41,471 41,549 55,616 82,672 116,743 169,778 240,778 293,778 328,747 346,684 L 369,508 C 377,444 397,411 428,410 L 1163,1116 C 1174,1127 1196,1133 1229,1133 1271,1133 1292,1118 1292,1087 L 1292,965 C 1292,929 1282,901 1262,881 L 442,47 C 390,-6 338,-33 285,-33 Z"/>
  </g>
  <g id="bullet-char-template-9679" transform="scale(0.00048828125,-0.00048828125)">
   <path d="M 813,0 C 632,0 489,54 383,161 276,268 223,411 223,592 223,773 276,916 383,1023 489,1130 632,1184 813,1184 992,1184 1136,1130 1245,1023 1353,916 1407,772 1407,592 1407,412 1353,268 1245,161 1136,54 992,0 813,0 Z"/>
  </g>
  <g id="bullet-char-template-8226" transform="scale(0.00048828125,-0.00048828125)">
   <path d="M 346,457 C 273,457 209,483 155,535 101,586 74,649 74,723 74,796 101,859 155,911 209,963 273,989 346,989 419,989 480,963 531,910 582,859 608,796 608,723 608,648 583,586 532,535 482,483 420,457 346,457 Z"/>
  </g>
  <g id="bullet-char-template-8211" transform="scale(0.00048828125,-0.00048828125)">
   <path d="M -4,459 L 1135,459 1135,606 -4,606 -4,459 Z"/>
  </g>
  <g id="bullet-char-template-61548" transform="scale(0.00048828125,-0.00048828125)">
   <path d="M 173,740 C 173,903 231,1043 346,1159 462,1274 601,1332 765,1332 928,1332 1067,1274 1183,1159 1299,1043 1357,903 1357,740 1357,577 1299,437 1183,322 1067,206 928,148 765,148 601,148 462,206 346,322 231,437 173,577 173,740 Z"/>
  </g>
 </defs>
 <g class="Page">
  <g class="com.sun.star.drawing.CustomShape">
   <g id="id3">
    <rect class="BoundingBox" stroke="none" fill="none" x="4035" y="3424" width="2533" height="2218"/>
    <path fill="rgb(0,80,133)" stroke="none" d="M 4535,3424 L 4536,3424 C 4448,3424 4362,3447 4286,3491 4210,3535 4147,3598 4103,3674 4059,3750 4036,3836 4036,3924 L 4036,5141 4036,5141 C 4036,5229 4059,5315 4103,5391 4147,5467 4210,5530 4286,5574 4362,5618 4448,5641 4536,5641 L 6067,5641 6067,5641 C 6155,5641 6241,5618 6317,5574 6393,5530 6456,5467 6500,5391 6544,5315 6567,5229 6567,5141 L 6567,3923 6567,3924 6567,3924 C 6567,3836 6544,3750 6500,3674 6456,3598 6393,3535 6317,3491 6241,3447 6155,3424 6067,3424 L 4535,3424 Z"/>
   </g>
  </g>
  <g class="Group">
   <g class="com.sun.star.drawing.ClosedBezierShape">
    <g id="id4">
     <rect class="BoundingBox" stroke="none" fill="none" x="4709" y="3808" width="269" height="269"/>
     <path fill="none" stroke="rgb(255,255,255)" stroke-width="81" stroke-linejoin="miter" d="M 4936,3943 C 4936,3959 4932,3974 4923,3988 4915,4003 4904,4014 4889,4022 4875,4031 4858,4035 4843,4035 4827,4035 4811,4031 4797,4022 4783,4014 4771,4003 4763,3988 4755,3974 4750,3959 4750,3943 4750,3926 4755,3910 4763,3896 4771,3882 4783,3870 4797,3862 4811,3854 4827,3849 4843,3849 4859,3849 4875,3854 4889,3862 4904,3870 4915,3882 4923,3896 4932,3910 4936,3926 4936,3943 Z"/>
    </g>
   </g>
   <g class="com.sun.star.drawing.OpenBezierShape">
    <g id="id5">
     <rect class="BoundingBox" stroke="none" fill="none" x="4617" y="4117" width="454" height="270"/>
     <path fill="none" stroke="rgb(255,255,255)" stroke-width="81" stroke-linejoin="round" stroke-linecap="round" d="M 4658,4345 C 4689,4290 4688,4211 4751,4181 4813,4150 4875,4150 4937,4181 4999,4211 4999,4290 5029,4345"/>
    </g>
   </g>
   <g class="com.sun.star.drawing.ClosedBezierShape">
    <g id="id6">
     <rect class="BoundingBox" stroke="none" fill="none" x="5793" y="4097" width="269" height="268"/>
     <path fill="none" stroke="rgb(255,255,255)" stroke-width="81" stroke-linejoin="miter" d="M 6020,4231 C 6020,4247 6016,4263 6007,4277 5999,4292 5988,4303 5973,4311 5959,4320 5944,4323 5928,4323 5912,4323 5895,4320 5881,4311 5867,4303 5855,4292 5847,4277 5839,4263 5834,4247 5834,4231 5834,4214 5839,4200 5847,4185 5855,4170 5867,4157 5881,4150 5895,4142 5912,4138 5928,4138 5944,4138 5959,4142 5973,4150 5988,4157 5999,4170 6007,4185 6016,4200 6020,4214 6020,4231 Z"/>
    </g>
   </g>
   <g class="com.sun.star.drawing.OpenBezierShape">
    <g id="id7">
     <rect class="BoundingBox" stroke="none" fill="none" x="5700" y="4404" width="454" height="272"/>
     <path fill="none" stroke="rgb(255,255,255)" stroke-width="81" stroke-linejoin="round" stroke-linecap="round" d="M 5741,4634 C 5772,4578 5771,4499 5834,4468 5896,4437 5958,4437 6020,4468 6082,4499 6082,4578 6112,4634"/>
    </g>
   </g>
   <g class="com.sun.star.drawing.ClosedBezierShape">
    <g id="id8">
     <rect class="BoundingBox" stroke="none" fill="none" x="4988" y="4738" width="268" height="268"/>
     <path fill="none" stroke="rgb(255,255,255)" stroke-width="81" stroke-linejoin="miter" d="M 5214,4872 C 5214,4888 5211,4904 5202,4918 5194,4933 5183,4944 5168,4952 5154,4961 5138,4964 5122,4964 5105,4964 5091,4961 5076,4952 5061,4944 5048,4933 5041,4918 5033,4904 5029,4888 5029,4872 5029,4855 5033,4839 5041,4825 5048,4811 5061,4799 5076,4791 5091,4783 5105,4779 5122,4779 5138,4779 5154,4783 5168,4791 5183,4799 5194,4811 5202,4825 5211,4839 5214,4855 5214,4872 Z"/>
    </g>
   </g>
   <g class="com.sun.star.drawing.OpenBezierShape">
    <g id="id9">
     <rect class="BoundingBox" stroke="none" fill="none" x="4895" y="5045" width="454" height="272"/>
     <path fill="none" stroke="rgb(255,255,255)" stroke-width="81" stroke-linejoin="round" stroke-linecap="round" d="M 4936,5275 C 4967,5219 4966,5140 5029,5109 5091,5078 5152,5078 5214,5109 5275,5140 5276,5219 5307,5275"/>
    </g>
   </g>
   <g class="com.sun.star.drawing.OpenBezierShape">
    <g id="id10">
     <rect class="BoundingBox" stroke="none" fill="none" x="4992" y="3746" width="872" height="336"/>
     <path fill="none" stroke="rgb(255,255,255)" stroke-width="81" stroke-linejoin="round" stroke-linecap="round" d="M 5822,4040 C 5690,3885 5496,3787 5278,3787 5191,3787 5109,3802 5033,3830"/>
    </g>
   </g>
   <g class="com.sun.star.drawing.OpenBezierShape">
    <g id="id11">
     <rect class="BoundingBox" stroke="none" fill="none" x="5374" y="4681" width="623" height="560"/>
     <path fill="none" stroke="rgb(255,255,255)" stroke-width="81" stroke-linejoin="round" stroke-linecap="round" d="M 5415,5199 C 5669,5150 5876,4965 5955,4722"/>
    </g>
   </g>
   <g class="com.sun.star.drawing.OpenBezierShape">
    <g id="id12">
     <rect class="BoundingBox" stroke="none" fill="none" x="4523" y="4396" width="401" height="738"/>
     <path fill="none" stroke="rgb(255,255,255)" stroke-width="81" stroke-linejoin="round" stroke-linecap="round" d="M 4568,4437 C 4565,4458 4564,4479 4564,4500 4564,4746 4691,4964 4882,5092"/>
    </g>
   </g>
  </g>
 </g>
</svg>